<svg xmlns="http://www.w3.org/2000/svg" version="1.1" xmlns:xlink="http://www.w3.org/1999/xlink" width="200" height="200"><svg xmlns="http://www.w3.org/2000/svg" version="1.1" xmlns:xlink="http://www.w3.org/1999/xlink" viewBox="0 0 200 200"><rect width="200" height="200" fill="url('#gradient')"></rect><defs><linearGradient id="SvgjsLinearGradient1001" gradientTransform="rotate(45 0.5 0.5)"><stop offset="0%" stop-color="#dee90b"></stop><stop offset="100%" stop-color="#d9e241"></stop></linearGradient></defs><g><g fill="#1b3855" transform="matrix(3.255386789120452,0,0,3.255386789120452,10.100309590502107,117.2886026457231)" stroke="#0e5278" stroke-width="0.2"><path d="M3.77-14.22L6.59-3.87L9.42-14.22L13.25-14.22L8.47 0L4.72 0L-0.03-14.22L3.77-14.22ZM17.61-10.57L17.61 0L14.31 0L14.31-10.57L17.61-10.57ZM14.11-13.29L14.11-13.29Q14.11-13.99 14.62-14.44Q15.13-14.89 15.94-14.89Q16.75-14.89 17.26-14.44Q17.76-13.99 17.76-13.29Q17.76-12.59 17.26-12.14Q16.75-11.69 15.94-11.69Q15.13-11.69 14.62-12.14Q14.11-12.59 14.11-13.29ZM28.88 0L25.59 0Q25.41-0.32 25.27-0.95L25.27-0.95Q24.37 0.20 22.73 0.20L22.73 0.20Q21.24 0.20 20.20-0.71Q19.15-1.61 19.15-2.98L19.15-2.98Q19.15-4.70 20.42-5.58Q21.69-6.46 24.11-6.46L24.11-6.46L25.13-6.46L25.13-7.01Q25.13-8.47 23.87-8.47L23.87-8.47Q22.70-8.47 22.70-7.31L22.70-7.31L19.40-7.31Q19.40-8.85 20.71-9.80Q22.01-10.76 24.03-10.76Q26.05-10.76 27.23-9.78Q28.40-8.79 28.43-7.07L28.43-7.07L28.43-2.39Q28.45-0.94 28.88-0.17L28.88-0.17L28.88 0ZM23.53-2.15L23.53-2.15Q24.14-2.15 24.55-2.41Q24.95-2.68 25.13-3.01L25.13-3.01L25.13-4.70L24.17-4.70Q22.45-4.70 22.45-3.15L22.45-3.15Q22.45-2.71 22.75-2.43Q23.06-2.15 23.53-2.15ZM30.49-10.57L33.79-10.57L33.79 0.36Q33.78 2.24 32.71 3.25Q31.65 4.27 29.75 4.27L29.75 4.27Q28.93 4.27 28.19 4.10L28.19 4.10L28.19 1.61Q28.76 1.70 29.12 1.70L29.12 1.70Q30.49 1.70 30.49 0.34L30.49 0.34L30.49-10.57ZM30.24-13.29L30.24-13.29Q30.24-13.99 30.75-14.44Q31.26-14.89 32.07-14.89Q32.88-14.89 33.39-14.44Q33.90-13.99 33.90-13.29Q33.90-12.59 33.39-12.14Q32.88-11.69 32.07-11.69Q31.26-11.69 30.75-12.14Q30.24-12.59 30.24-13.29ZM40.76 0.20L40.76 0.20Q38.33 0.20 36.83-1.25Q35.32-2.71 35.32-5.03L35.32-5.03L35.32-5.30Q35.32-6.92 35.92-8.16Q36.52-9.40 37.68-10.08Q38.83-10.76 40.41-10.76L40.41-10.76Q42.64-10.76 43.93-9.38Q45.21-8.00 45.21-5.53L45.21-5.53L45.21-4.25L38.67-4.25Q38.85-3.36 39.44-2.85Q40.04-2.34 40.99-2.34L40.99-2.34Q42.55-2.34 43.43-3.44L43.43-3.44L44.93-1.66Q44.32-0.81 43.19-0.31Q42.06 0.20 40.76 0.20ZM40.39-8.22L40.39-8.22Q38.95-8.22 38.67-6.31L38.67-6.31L41.99-6.31L41.99-6.56Q42.01-7.35 41.59-7.79Q41.17-8.22 40.39-8.22ZM52.07-2.97L52.07-2.97Q52.07-3.39 51.63-3.64Q51.19-3.90 49.96-4.17Q48.73-4.44 47.93-4.89Q47.13-5.33 46.71-5.97Q46.29-6.60 46.29-7.42L46.29-7.42Q46.29-8.88 47.49-9.82Q48.69-10.76 50.63-10.76L50.63-10.76Q52.72-10.76 53.99-9.81Q55.26-8.87 55.26-7.32L55.26-7.32L51.96-7.32Q51.96-8.59 50.63-8.59L50.63-8.59Q50.11-8.59 49.76-8.31Q49.40-8.02 49.40-7.59L49.40-7.59Q49.40-7.15 49.83-6.88Q50.26-6.60 51.21-6.43Q52.15-6.25 52.86-6.01L52.86-6.01Q55.24-5.19 55.24-3.07L55.24-3.07Q55.24-1.62 53.96-0.71Q52.68 0.20 50.63 0.20L50.63 0.20Q49.28 0.20 48.21-0.29Q47.15-0.78 46.55-1.62Q45.96-2.46 45.96-3.39L45.96-3.39L49.03-3.39Q49.05-2.66 49.52-2.32Q49.99-1.98 50.72-1.98L50.72-1.98Q51.40-1.98 51.73-2.26Q52.07-2.53 52.07-2.97Z"></path></g></g></svg><style>@media (prefers-color-scheme: light) { :root { filter: none; } }
@media (prefers-color-scheme: dark) { :root { filter: none; } }
</style></svg>